<?xml version="1.0" encoding="UTF-8" standalone="no"?>
<!DOCTYPE svg PUBLIC "-//W3C//DTD SVG 1.1//EN" "http://www.w3.org/Graphics/SVG/1.1/DTD/svg11.dtd">
<svg width="100%" height="100%" viewBox="0 0 492 200" version="1.1" xmlns="http://www.w3.org/2000/svg" xmlns:xlink="http://www.w3.org/1999/xlink" xml:space="preserve" xmlns:serif="http://www.serif.com/" style="fill-rule:evenodd;clip-rule:evenodd;stroke-linejoin:round;stroke-miterlimit:2;">
    <g transform="matrix(-1,0,0,-1,492,199.37)">
        <g id="Layer_2">
            <g id="OBJECTS">
                <path d="M0,0L0,199.37L492,199.37C456.45,167.56 414.28,152.16 316.8,156.52C229.64,160.42 265.86,90.64 216.35,40.13C168.54,-8.61 113.76,4.06 52.46,14.37C29.49,18.23 12.38,10.74 0,0Z" style="fill:url(#_Linear1);fill-rule:nonzero;"/>
                <g>
                    <path d="M221.6,124.6C217.3,179.37 247.4,205.54 290.41,191.16C327.95,178.61 356.23,157.16 387.17,157.48C367.38,155.64 344.28,155.29 316.78,156.48C229.62,160.38 265.84,90.6 216.33,40.09C207.872,31.315 198.127,23.88 187.43,18.04C176.733,12.2 225.9,69.84 221.6,124.6Z" style="fill:url(#_Linear2);fill-rule:nonzero;"/>
                    <path d="M400.9,159.07C401.58,159.23 402.273,159.327 402.97,159.36L400.9,159.07Z" style="fill:url(#_Linear3);fill-rule:nonzero;"/>
                </g>
            </g>
        </g>
    </g>
    <defs>
        <linearGradient id="_Linear1" x1="0" y1="0" x2="1" y2="0" gradientUnits="userSpaceOnUse" gradientTransform="matrix(-400.37,45.11,-45.11,-400.37,440.98,77.72)"><stop offset="0" style="stop-color:rgb(101,177,242);stop-opacity:1"/><stop offset="1" style="stop-color:rgb(144,243,229);stop-opacity:1"/></linearGradient>
        <linearGradient id="_Linear2" x1="0" y1="0" x2="1" y2="0" gradientUnits="userSpaceOnUse" gradientTransform="matrix(-48.26,64.36,-64.36,-48.26,266,116.17)"><stop offset="0" style="stop-color:rgb(56,243,229);stop-opacity:0"/><stop offset="1" style="stop-color:rgb(13,179,245);stop-opacity:1"/></linearGradient>
        <linearGradient id="_Linear3" x1="0" y1="0" x2="1" y2="0" gradientUnits="userSpaceOnUse" gradientTransform="matrix(-48.27,64.36,-64.36,-48.27,373.66,196.92)"><stop offset="0" style="stop-color:rgb(56,243,229);stop-opacity:0"/><stop offset="1" style="stop-color:rgb(13,179,245);stop-opacity:1"/></linearGradient>
    </defs>
</svg>
